<svg width="341" height="341" viewBox="0 0 341 341" fill="none" xmlns="http://www.w3.org/2000/svg">
<path d="M76.3369 232.194C75.4623 232.979 74.6694 234.355 75.7823 236.159C77.0807 238.264 79.3583 238.01 81.2856 236.821C83.2266 235.624 84.4756 233.703 83.1772 231.598C82.0559 229.78 80.4367 229.816 79.18 230.44L78.1767 228.814C80.5123 227.675 83.0117 228.209 84.5461 230.697C86.2829 233.513 85.233 236.613 82.2805 238.434C79.3417 240.247 76.0996 239.794 74.3628 236.978C72.8368 234.504 73.4813 232.031 75.3336 230.567L76.3369 232.194Z" fill="#F6B32B"/>
<path d="M67.4368 214.312L65.6738 208.992L67.2288 208.477L68.9918 213.797L72.2999 212.701L70.2388 206.481L71.7786 205.971L74.4407 214.005L63.5407 217.617L60.9291 209.735L62.4688 209.225L64.4793 215.292L67.4368 214.312Z" fill="#F6B32B"/>
<path d="M55.685 191.646L55.5184 189.742L65.3417 188.882L64.842 183.171L66.4579 183.03L67.1241 190.645L55.685 191.646Z" fill="#F6B32B"/>
<path d="M58.9953 163.359L59.8077 157.814L61.4285 158.051L60.6161 163.597L64.0644 164.102L65.014 157.619L66.6189 157.854L65.3923 166.228L54.0307 164.564L55.234 156.348L56.839 156.584L55.9126 162.908L58.9953 163.359Z" fill="#F6B32B"/>
<path d="M64.549 130.853C65.8624 131.375 66.166 132.394 66.1147 133.393L66.1445 133.405C66.7833 132.363 67.9836 131.734 69.5806 132.368C71.6403 133.186 72.1367 135.025 71.2592 137.234L69.338 142.07L58.6665 137.83L60.4868 133.248C61.3584 131.054 62.8326 130.171 64.549 130.853ZM63.79 137.809L64.881 135.063C65.385 133.794 65.0673 133.115 64.127 132.742C63.1867 132.368 62.433 132.743 62.012 133.802L60.8795 136.653L63.79 137.809ZM65.1183 138.337L68.5362 139.695L69.6984 136.77C70.3032 135.247 69.7706 134.5 68.7706 134.103C67.681 133.67 66.8023 134.098 66.3576 135.218L65.1183 138.337Z" fill="#F6B32B"/>
<path d="M78.7481 119.473L69.3419 112.886L72.1514 108.874C73.5055 106.94 75.3673 106.381 77.0775 107.579C78.3931 108.5 78.6863 109.705 78.1941 110.968L78.2204 110.986C80.1481 109.101 83.279 112.47 83.7869 112.08L83.879 112.145L82.7275 113.789C82.0289 113.947 79.4098 110.8 77.8254 113.062L76.2134 115.365L79.8443 117.907L78.7481 119.473ZM71.7668 112.251L74.8715 114.425L76.3546 112.307C77.027 111.347 77.5429 110.218 76.1747 109.26C74.8197 108.311 73.9223 109.173 73.2499 110.133L71.7668 112.251Z" fill="#F6B32B"/>
<path d="M96.3033 93.1861L92.8002 96.3036L93.9087 98.9504L92.457 100.242L87.9785 88.8563L89.4782 87.5218L100.255 93.3025L98.8035 94.5943L96.3033 93.1861ZM92.1391 94.7636L94.8624 92.34L89.9101 89.4807L89.8861 89.5021L92.1391 94.7636Z" fill="#F6B32B"/>
<path d="M114.325 82.2519L109.645 73.5724L106.408 75.3179L105.638 73.8901L113.781 69.4998L114.551 70.9275L111.328 72.6654L116.008 81.3449L114.325 82.2519Z" fill="#F6B32B"/>
<path d="M130.461 61.3237L132.307 60.829L135.279 71.9206L133.433 72.4153L130.461 61.3237Z" fill="#F6B32B"/>
<path d="M157.147 66.4781L156.813 55.0001L158.949 54.938L164.368 63.4081L164.401 63.4072L164.15 54.7866L166.06 54.731L166.394 66.2091L164.275 66.2707L158.84 57.8331L158.808 57.8341L159.058 66.4225L157.147 66.4781Z" fill="#F6B32B"/>
<path d="M191.054 60.0478C191.047 58.6524 190.175 57.6359 188.508 57.2917C186.101 56.7948 184.669 58.7293 184.234 60.8368C183.795 62.9601 184.124 65.2583 186.688 65.7877C188.465 66.1546 190.134 65.2201 190.52 63.4304L187.343 62.7743L187.655 61.2644L192.735 62.3134L191.517 68.2115L190.227 67.9452L190.137 66.3194L190.105 66.3129C189.116 67.2894 187.929 67.7167 186.231 67.3659C182.975 66.6937 181.66 63.8476 182.362 60.4504C183.06 57.0688 185.615 55.0217 188.855 55.6907C191.78 56.2947 193.025 58.208 192.926 60.4342L191.054 60.0478Z" fill="#F6B32B"/>
<path d="M231.455 85.6372C228.734 83.4856 228.607 80.1505 230.749 77.442C232.891 74.7335 236.155 74.1004 238.876 76.2519C241.585 78.3935 241.734 81.7261 239.592 84.4346C237.451 87.1431 234.164 87.7788 231.455 85.6372ZM232.471 84.3523C234.537 85.9858 236.649 85.0759 238.093 83.2492C239.528 81.4352 239.926 79.1705 237.86 77.5369C235.794 75.9033 233.67 76.8033 232.235 78.6174C230.791 80.444 230.405 82.7187 232.471 84.3523Z" fill="#F6B32B"/>
<path d="M255.064 102.266C253.099 103.82 250.974 103.8 248.992 101.293C247.01 98.7861 247.481 96.7145 249.446 95.1606L255.379 90.469L256.565 91.9681L250.631 96.6597C249.271 97.7355 249.191 98.9038 250.277 100.277C251.373 101.663 252.528 101.855 253.889 100.779L259.822 96.0875L260.997 97.574L255.064 102.266Z" fill="#F6B32B"/>
<path d="M261.336 117.166L271.744 112.313L273.814 116.752C274.811 118.892 274.364 120.784 272.472 121.666C271.017 122.345 269.826 121.996 268.979 120.938L268.95 120.952C269.618 123.564 265.136 124.591 265.219 125.225L265.117 125.273L264.269 123.453C264.481 122.77 268.517 122.075 267.349 119.572L266.161 117.024L262.144 118.898L261.336 117.166ZM271.081 114.73L267.646 116.332L268.739 118.676C269.234 119.738 269.954 120.749 271.468 120.043C272.967 119.344 272.669 118.136 272.174 117.074L271.081 114.73Z" fill="#F6B32B"/>
<path d="M284.207 172.471C282.794 172.43 282.16 171.576 281.867 170.619L281.834 170.618C281.591 171.816 280.678 172.818 278.96 172.768C276.745 172.704 275.649 171.145 275.719 168.769L275.87 163.568L287.348 163.902L287.205 168.831C287.136 171.19 286.053 172.525 284.207 172.471ZM282.541 165.674L282.455 168.628C282.415 169.993 282.946 170.522 283.957 170.552C284.969 170.581 285.549 169.971 285.582 168.832L285.671 165.765L282.541 165.674ZM281.112 165.633L277.436 165.526L277.344 168.672C277.297 170.31 278.053 170.83 279.128 170.861C280.3 170.895 280.979 170.192 281.014 168.988L281.112 165.633Z" fill="#F6B32B"/>
<path d="M275.648 195.177L276.862 190.647L274.481 189.045L274.984 187.168L284.983 194.22L284.463 196.159L272.282 197.251L272.785 195.374L275.648 195.177ZM278.26 191.571L277.317 195.092L283.026 194.76L283.034 194.729L278.26 191.571Z" fill="#F6B32B"/>
<path d="M268.032 211.558L278.139 217.008L275.815 221.32C274.694 223.398 272.91 224.169 271.072 223.178C269.659 222.416 269.228 221.253 269.57 219.941L269.542 219.926C267.846 222.022 264.345 219.04 263.886 219.486L263.787 219.432L264.739 217.665C265.415 217.427 268.382 220.25 269.693 217.818L271.027 215.344L267.125 213.241L268.032 211.558ZM275.805 217.921L272.469 216.122L271.241 218.398C270.685 219.43 270.304 220.611 271.774 221.403C273.23 222.188 274.021 221.228 274.578 220.197L275.805 217.921Z" fill="#F6B32B"/>
<path d="M259.964 235.845L257.092 239.072L255.916 238.026L258.788 234.799L259.964 235.845Z" fill="#F6B32B"/>
<path d="M239.49 250.926L246.076 260.332L242.064 263.142C240.13 264.496 238.189 264.384 236.992 262.674C236.071 261.358 236.207 260.125 237.102 259.107L237.083 259.081C234.627 260.193 232.837 255.957 232.227 256.149L232.162 256.057L233.807 254.905C234.517 254.996 235.902 258.849 238.165 257.265L240.467 255.653L237.924 252.022L239.49 250.926ZM243.58 260.099L241.406 256.995L239.288 258.478C238.328 259.15 237.457 260.035 238.415 261.403C239.364 262.758 240.502 262.255 241.462 261.583L243.58 260.099Z" fill="#F6B32B"/>
<path d="M214.003 269.623L218.361 267.892L218.225 265.026L220.031 264.308L220.345 276.539L218.48 277.28L210.33 268.162L212.136 267.445L214.003 269.623ZM218.456 269.565L215.068 270.911L218.744 275.292L218.774 275.28L218.456 269.565Z" fill="#F6B32B"/>
<path d="M197.948 284.662L196.057 284.939L194.393 273.578L196.284 273.301L197.948 284.662Z" fill="#F6B32B"/>
<path d="M167.108 282.881C164.715 282.043 162.906 281.353 163.129 278.793C163.289 276.969 164.798 275.57 167.678 275.821C170.478 276.066 172.478 277.708 172.363 280.31L170.459 280.144C170.491 278.679 169.583 277.633 167.535 277.453C165.839 277.305 165.117 278 165.04 278.879C164.921 280.239 165.875 280.581 168.082 281.338C169.834 281.943 171.71 282.8 171.52 284.976C171.342 287.008 169.675 288.007 167.179 287.788C164.667 287.568 162.958 286.097 163.004 283.731L164.908 283.898C164.967 285.241 165.738 286.018 167.322 286.156C168.682 286.275 169.542 285.835 169.616 284.987C169.726 283.739 168.673 283.421 167.108 282.881Z" fill="#F6B32B"/>
<path d="M143.758 279.713L138.438 277.95L138.953 276.395L144.273 278.158L145.37 274.849L139.15 272.788L139.66 271.249L147.694 273.911L144.082 284.811L136.201 282.199L136.711 280.659L142.778 282.67L143.758 279.713Z" fill="#F6B32B"/>
<path d="M124.588 265.83L118.559 275.603L114.39 273.032C112.381 271.792 111.715 269.966 112.811 268.189C113.654 266.822 114.84 266.46 116.13 266.878L116.147 266.85C114.153 265.035 117.333 261.714 116.915 261.23L116.974 261.134L118.683 262.188C118.881 262.876 115.891 265.674 118.242 267.124L120.634 268.599L122.961 264.827L124.588 265.83ZM117.784 273.219L119.774 269.994L117.573 268.636C116.576 268.021 115.419 267.571 114.542 268.993C113.674 270.401 114.586 271.247 115.584 271.862L117.784 273.219Z" fill="#F6B32B"/>
</svg>
